<svg version="1.1" xmlns="http://www.w3.org/2000/svg" xmlns:xlink="http://www.w3.org/1999/xlink" width="800" height="800"><defs/><g transform="scale(2,2)"><g id="background-4fe8b970"><rect fill="white" stroke="none" x="0" y="0" width="400" height="400" class="dcg-svg-background"/></g><g id="graphpaper-4fe8b970"><g id="grid-4fe8b970"><g><path fill="none" stroke="rgb(0,0,0)" class="dcg-svg-minor-gridline" paint-order="fill stroke markers" d=" M 7.5 0 L 7.5 400" stroke-opacity="0.2" stroke-miterlimit="10" stroke-dasharray=""/><path fill="none" stroke="rgb(0,0,0)" class="dcg-svg-minor-gridline" paint-order="fill stroke markers" d=" M 42.5 0 L 42.5 400" stroke-opacity="0.2" stroke-miterlimit="10" stroke-dasharray=""/><path fill="none" stroke="rgb(0,0,0)" class="dcg-svg-minor-gridline" paint-order="fill stroke markers" d=" M 77.5 0 L 77.5 400" stroke-opacity="0.2" stroke-miterlimit="10" stroke-dasharray=""/><path fill="none" stroke="rgb(0,0,0)" class="dcg-svg-minor-gridline" paint-order="fill stroke markers" d=" M 112.5 0 L 112.5 400" stroke-opacity="0.2" stroke-miterlimit="10" stroke-dasharray=""/><path fill="none" stroke="rgb(0,0,0)" class="dcg-svg-minor-gridline" paint-order="fill stroke markers" d=" M 147.5 0 L 147.5 400" stroke-opacity="0.2" stroke-miterlimit="10" stroke-dasharray=""/><path fill="none" stroke="rgb(0,0,0)" class="dcg-svg-minor-gridline" paint-order="fill stroke markers" d=" M 217.5 0 L 217.5 400" stroke-opacity="0.2" stroke-miterlimit="10" stroke-dasharray=""/><path fill="none" stroke="rgb(0,0,0)" class="dcg-svg-minor-gridline" paint-order="fill stroke markers" d=" M 252.5 0 L 252.5 400" stroke-opacity="0.2" stroke-miterlimit="10" stroke-dasharray=""/><path fill="none" stroke="rgb(0,0,0)" class="dcg-svg-minor-gridline" paint-order="fill stroke markers" d=" M 287.5 0 L 287.5 400" stroke-opacity="0.2" stroke-miterlimit="10" stroke-dasharray=""/><path fill="none" stroke="rgb(0,0,0)" class="dcg-svg-minor-gridline" paint-order="fill stroke markers" d=" M 322.5 0 L 322.5 400" stroke-opacity="0.2" stroke-miterlimit="10" stroke-dasharray=""/><path fill="none" stroke="rgb(0,0,0)" class="dcg-svg-minor-gridline" paint-order="fill stroke markers" d=" M 357.5 0 L 357.5 400" stroke-opacity="0.2" stroke-miterlimit="10" stroke-dasharray=""/><path fill="none" stroke="rgb(0,0,0)" class="dcg-svg-minor-gridline" paint-order="fill stroke markers" d=" M 392.5 0 L 392.5 400" stroke-opacity="0.2" stroke-miterlimit="10" stroke-dasharray=""/><path fill="none" stroke="rgb(0,0,0)" class="dcg-svg-minor-gridline" paint-order="fill stroke markers" d=" M 0 384.5 L 400 384.5" stroke-opacity="0.2" stroke-miterlimit="10" stroke-dasharray=""/><path fill="none" stroke="rgb(0,0,0)" class="dcg-svg-minor-gridline" paint-order="fill stroke markers" d=" M 0 349.5 L 400 349.5" stroke-opacity="0.2" stroke-miterlimit="10" stroke-dasharray=""/><path fill="none" stroke="rgb(0,0,0)" class="dcg-svg-minor-gridline" paint-order="fill stroke markers" d=" M 0 279.5 L 400 279.5" stroke-opacity="0.2" stroke-miterlimit="10" stroke-dasharray=""/><path fill="none" stroke="rgb(0,0,0)" class="dcg-svg-minor-gridline" paint-order="fill stroke markers" d=" M 0 244.5 L 400 244.5" stroke-opacity="0.2" stroke-miterlimit="10" stroke-dasharray=""/><path fill="none" stroke="rgb(0,0,0)" class="dcg-svg-minor-gridline" paint-order="fill stroke markers" d=" M 0 209.5 L 400 209.5" stroke-opacity="0.2" stroke-miterlimit="10" stroke-dasharray=""/><path fill="none" stroke="rgb(0,0,0)" class="dcg-svg-minor-gridline" paint-order="fill stroke markers" d=" M 0 174.5 L 400 174.5" stroke-opacity="0.2" stroke-miterlimit="10" stroke-dasharray=""/><path fill="none" stroke="rgb(0,0,0)" class="dcg-svg-minor-gridline" paint-order="fill stroke markers" d=" M 0 139.5 L 400 139.5" stroke-opacity="0.2" stroke-miterlimit="10" stroke-dasharray=""/><path fill="none" stroke="rgb(0,0,0)" class="dcg-svg-minor-gridline" paint-order="fill stroke markers" d=" M 0 104.5 L 400 104.5" stroke-opacity="0.2" stroke-miterlimit="10" stroke-dasharray=""/><path fill="none" stroke="rgb(0,0,0)" class="dcg-svg-minor-gridline" paint-order="fill stroke markers" d=" M 0 69.5 L 400 69.5" stroke-opacity="0.2" stroke-miterlimit="10" stroke-dasharray=""/><path fill="none" stroke="rgb(0,0,0)" class="dcg-svg-minor-gridline" paint-order="fill stroke markers" d=" M 0 34.5 L 400 34.5" stroke-opacity="0.2" stroke-miterlimit="10" stroke-dasharray=""/><path fill="none" stroke="rgb(0,0,0)" class="dcg-svg-major-gridline" paint-order="fill stroke markers" d=" M 7.5 0 L 7.5 400" stroke-opacity="0.2500000000000001" stroke-miterlimit="10" stroke-dasharray=""/><path fill="none" stroke="rgb(0,0,0)" class="dcg-svg-major-gridline" paint-order="fill stroke markers" d=" M 357.5 0 L 357.5 400" stroke-opacity="0.2500000000000001" stroke-miterlimit="10" stroke-dasharray=""/><path fill="none" stroke="rgb(0,0,0)" class="dcg-svg-major-gridline" paint-order="fill stroke markers" d=" M 0 139.5 L 400 139.5" stroke-opacity="0.2500000000000001" stroke-miterlimit="10" stroke-dasharray=""/></g></g><g id="axis-4fe8b970"><g id="yaxis-4fe8b970"><title>Y axis</title><g><path fill="none" stroke="rgb(0,0,0)" class="dcg-svg-axis-line" paint-order="fill stroke markers" d=" M 182 0 L 182 400" stroke-opacity="0.9" stroke-miterlimit="10" stroke-width="1.5" stroke-dasharray=""/></g></g><g id="xaxis-4fe8b970"><title>X axis</title><g><path fill="none" stroke="rgb(0,0,0)" class="dcg-svg-axis-line" paint-order="fill stroke markers" d=" M 0 315 L 400 315" stroke-opacity="0.9" stroke-miterlimit="10" stroke-width="1.5" stroke-dasharray=""/></g></g><g><g class="dcg-svg-axis-value"><text fill="none" stroke="#ffffff" font-family="Arial" font-size="14px" font-style="normal" font-weight="normal" text-decoration="normal" x="173.47026907764246" y="330.61612181224876" text-anchor="middle" stroke-miterlimit="2" stroke-width="3" stroke-dasharray="">0</text><text fill="#000000" stroke="none" font-family="Arial" font-size="14px" font-style="normal" font-weight="normal" text-decoration="normal" x="173.47026907764246" y="330.61612181224876" text-anchor="middle">0</text></g><g class="dcg-svg-axis-value dcg-svg-offcenter-axis-value"><text fill="none" stroke="#ffffff" font-family="Arial" font-size="14px" font-style="normal" font-weight="normal" text-decoration="normal" x="9.224999904632568" y="330.61612181224876" text-anchor="middle" stroke-miterlimit="2" stroke-width="3" stroke-dasharray="">-5</text><text fill="#000000" stroke="none" font-family="Arial" font-size="14px" font-style="normal" font-weight="normal" text-decoration="normal" x="9.224999904632568" y="330.61612181224876" text-anchor="middle">-5</text></g><g class="dcg-svg-axis-value"><text fill="none" stroke="#ffffff" font-family="Arial" font-size="14px" font-style="normal" font-weight="normal" text-decoration="normal" x="357.70760617161767" y="330.61612181224876" text-anchor="middle" stroke-miterlimit="2" stroke-width="3" stroke-dasharray="">5</text><text fill="#000000" stroke="none" font-family="Arial" font-size="14px" font-style="normal" font-weight="normal" text-decoration="normal" x="357.70760617161767" y="330.61612181224876" text-anchor="middle">5</text></g><g class="dcg-svg-axis-value"><text fill="none" stroke="#ffffff" font-family="Arial" font-size="14px" font-style="normal" font-weight="normal" text-decoration="normal" x="173.47026907764246" y="143.27045136904582" text-anchor="middle" stroke-miterlimit="2" stroke-width="3" stroke-dasharray="">5</text><text fill="#000000" stroke="none" font-family="Arial" font-size="14px" font-style="normal" font-weight="normal" text-decoration="normal" x="173.47026907764246" y="143.27045136904582" text-anchor="middle">5</text></g></g></g></g><g id="expressions-4fe8b970"><g id="sketch-4fe8b970"><title>表达式7</title><path fill="#2d70b3" stroke="none" paint-order="stroke fill markers" d="" fill-opacity="0.4"/><g><path fill="none" stroke="#2d70b3" class="dcg-svg-curve" paint-order="fill stroke markers" d=" M 182.36193572841455 314.80812181224877 L 182.36193572841455 314.80812181224877 L 183.75440178957555 314.67653425762006 L 186.1842425464397 314.2032354194896 L 189.18961959041215 313.34416446167506 L 192.47812974415103 312.126560183388 L 195.9369501686253 310.568023026081 L 199.57942815143394 308.6365311461709 L 203.30148999783648 306.361197498745 L 207.01407876282826 303.78452922412356 L 210.85976937014266 300.7799941525387 L 214.56975771959725 297.5383621582756 L 218.3123605038179 293.89833021003943 L 222.04491796734848 289.8586918101372 L 225.72488485550917 285.4227953427296 L 229.31031536304454 280.5985059075443 L 232.56185973639538 275.7141549580049 L 235.4720188077366 270.84462744102507 L 238.22204513864847 265.70817235641044 L 240.62270429649936 260.68762565943405 L 242.84402760733786 255.46366237328195 L 244.7310686536609 250.4451340554608 L 246.43606937839968 245.27982260243195 L 247.94766059131751 239.98307018089963 L 249.25576278464047 234.57109542486478 L 250.2750633761287 229.48783734742952 L 251.1077378445348 224.33472836070456 L 251.74905476742836 219.12602486776993 L 252.1953700541244 213.87629917077987 L 252.4441476521335 208.600356668235 L 252.49397395751788 203.31315172775504 L 252.34456584727107 198.02970271237848 L 251.99677228807928 192.76500664322822 L 251.45256951232324 187.53395398344585 L 250.7150497887317 182.35124402760985 L 249.78840385149368 177.23130137741154 L 248.67789708767066 172.18819397819072 L 247.27470940780648 166.82733188592462 L 245.6725200436982 161.58927979785986 L 243.88201262463193 156.48986492572496 L 241.91512651178923 151.54399002833807 L 239.61475764565967 146.40526872763095 L 237.1428471639476 141.47657868388077 L 234.3257540118235 136.44507375937664 L 231.35870244674706 131.6863421754058 L 228.05825432139432 126.92550800395566 L 224.43472590255473 122.23712033913091 L 220.73136687567796 117.9404127717088 L 216.9903896794227 114.04166386798613 L 213.03574184342568 110.34919992877161 L 209.13725477860115 107.10129426937507 L 205.34474093154697 104.2887686433848 L 201.51001610672006 101.775953407596 L 197.71929247016274 99.61086375604188 L 194.07461033337748 97.82909003740514 L 190.55082378325275 96.3974007105362 L 187.24559225632555 95.34001088887712 L 184.36120826950923 94.68923741102242 L 182.36193572841455 94.46225377099145" stroke-linecap="round" stroke-linejoin="round" stroke-miterlimit="10" stroke-width="2.5" stroke-dasharray=""/></g></g><g id="sketch-4fe8b970"><title>表达式8</title><path fill="#c74440" stroke="none" paint-order="stroke fill markers" d="" fill-opacity="0.4"/><g><path fill="none" stroke="#c74440" class="dcg-svg-curve" paint-order="fill stroke markers" d=" M 0 204.63518779162013 L 8.8 204.63518779162013 M 14.400000000000002 204.63518779162013 L 23.200000000000003 204.63518779162013 M 28.800000000000004 204.63518779162013 L 37.60000000000001 204.63518779162013 M 43.20000000000001 204.63518779162013 L 52.000000000000014 204.63518779162013 M 57.600000000000016 204.63518779162013 L 66.40000000000002 204.63518779162013 M 72.00000000000003 204.63518779162013 L 80.80000000000004 204.63518779162013 M 86.40000000000005 204.63518779162013 L 95.20000000000006 204.63518779162013 M 100.80000000000007 204.63518779162013 L 109.60000000000008 204.63518779162013 M 115.20000000000009 204.63518779162013 L 124.0000000000001 204.63518779162013 M 129.6000000000001 204.63518779162013 L 138.40000000000012 204.63518779162013 M 144.0000000000001 204.63518779162013 L 152.80000000000013 204.63518779162013 M 158.40000000000012 204.63518779162013 L 167.20000000000013 204.63518779162013 M 172.80000000000013 204.63518779162013 L 181.60000000000014 204.63518779162013 M 187.20000000000013 204.63518779162013 L 196.00000000000014 204.63518779162013 M 201.60000000000014 204.63518779162013 L 210.40000000000015 204.63518779162013 M 216.00000000000014 204.63518779162013 L 224.80000000000015 204.63518779162013 M 230.40000000000015 204.63518779162013 L 239.20000000000016 204.63518779162013 M 244.80000000000015 204.63518779162013 L 253.60000000000016 204.63518779162013 M 259.20000000000016 204.63518779162013 L 268.00000000000017 204.63518779162013 M 273.6000000000002 204.63518779162013 L 282.4000000000002 204.63518779162013 M 288.0000000000002 204.63518779162013 L 296.80000000000024 204.63518779162013 M 302.40000000000026 204.63518779162013 L 311.2000000000003 204.63518779162013 M 316.8000000000003 204.63518779162013 L 325.6000000000003 204.63518779162013 M 331.20000000000033 204.63518779162013 L 340.00000000000034 204.63518779162013 M 345.60000000000036 204.63518779162013 L 354.4000000000004 204.63518779162013 M 360.0000000000004 204.63518779162013 L 368.8000000000004 204.63518779162013 M 374.4000000000004 204.63518779162013 L 383.2000000000004 204.63518779162013 M 388.80000000000035 204.63518779162013 L 397.60000000000036 204.63518779162013" stroke-linecap="round" stroke-linejoin="round" stroke-miterlimit="10" stroke-width="2" stroke-dasharray=""/></g></g><g id="sketch-4fe8b970"><title>(0,πa)</title><path fill="#348543" stroke="none" class="dcg-svg-point" paint-order="stroke fill markers" d=" M 186.11193572841455 204.63518779162013 A 3.75 3.75 0 1 1 186.1119338534147 204.63143779224512 Z"/></g><g id="sketch-4fe8b970"><title>(0,2πa)</title><path fill="#348543" stroke="none" class="dcg-svg-point" paint-order="stroke fill markers" d=" M 186.11193572841455 94.46225377099145 A 3.75 3.75 0 1 1 186.1119338534147 94.45850377161645 Z"/></g></g><g id="labels-4fe8b970"><g transform="rotate(0,0,0) translate(122,179)"><g class="dcg-svg-label"><text fill="none" stroke="#FFF" font-family="sans-serif, arial" font-size="15.4px" font-style="normal" font-weight="400" text-decoration="normal" x="0" y="17.4888" text-anchor="start" stroke-linecap="round" stroke-linejoin="round" stroke-miterlimit="2" stroke-width="3" stroke-dasharray="">(0,πa)</text><text fill="rgb(52, 133, 67)" stroke="none" font-family="sans-serif, arial" font-size="15.4px" font-style="normal" font-weight="400" text-decoration="normal" x="0" y="17.4888" text-anchor="start">(0,πa)</text></g></g><g transform="rotate(0,0,0) translate(107,83.5)"><g class="dcg-svg-label"><text fill="none" stroke="#FFF" font-family="sans-serif, arial" font-size="15.4px" font-style="normal" font-weight="400" text-decoration="normal" x="0" y="17.4888" text-anchor="start" stroke-linecap="round" stroke-linejoin="round" stroke-miterlimit="2" stroke-width="3" stroke-dasharray="">(0,2πa)</text><text fill="rgb(52, 133, 67)" stroke="none" font-family="sans-serif, arial" font-size="15.4px" font-style="normal" font-weight="400" text-decoration="normal" x="0" y="17.4888" text-anchor="start">(0,2πa)</text></g></g></g><g id="labels-4fe8b970"/></g></svg>